<mxfile host="app.diagrams.net" modified="2023-10-01T13:53:37.491Z" agent="Mozilla/5.0 (Windows NT 10.0; Win64; x64) AppleWebKit/537.36 (KHTML, like Gecko) Chrome/117.0.0.0 Safari/537.36 Edg/117.0.2045.43" etag="QlBFXr5PoYR-cyUsN4e7" version="22.0.0" type="device">
  <diagram id="C5RBs43oDa-KdzZeNtuy" name="Page-1">
    <mxGraphModel dx="2498" dy="2465" grid="1" gridSize="10" guides="1" tooltips="1" connect="1" arrows="1" fold="1" page="1" pageScale="1" pageWidth="827" pageHeight="1169" math="0" shadow="0">
      <root>
        <mxCell id="WIyWlLk6GJQsqaUBKTNV-0" />
        <mxCell id="WIyWlLk6GJQsqaUBKTNV-1" parent="WIyWlLk6GJQsqaUBKTNV-0" />
        <mxCell id="qQvh8j2fQxOl9nIUwEqj-27" value="" style="shape=folder;fontStyle=1;spacingTop=10;tabWidth=40;tabHeight=14;tabPosition=left;html=1;whiteSpace=wrap;fillColor=#f5f5f5;strokeColor=#666666;fontColor=#333333;" parent="WIyWlLk6GJQsqaUBKTNV-1" vertex="1">
          <mxGeometry x="100" y="-20" width="790" height="300" as="geometry" />
        </mxCell>
        <mxCell id="qQvh8j2fQxOl9nIUwEqj-18" value="" style="shape=folder;fontStyle=1;spacingTop=10;tabWidth=40;tabHeight=14;tabPosition=left;html=1;whiteSpace=wrap;fillColor=#ffe6cc;strokeColor=#d79b00;" parent="WIyWlLk6GJQsqaUBKTNV-1" vertex="1">
          <mxGeometry x="396" y="294" width="494" height="346" as="geometry" />
        </mxCell>
        <mxCell id="qQvh8j2fQxOl9nIUwEqj-17" value="" style="shape=folder;fontStyle=1;spacingTop=10;tabWidth=40;tabHeight=14;tabPosition=left;html=1;whiteSpace=wrap;fillColor=#dae8fc;strokeColor=#6c8ebf;" parent="WIyWlLk6GJQsqaUBKTNV-1" vertex="1">
          <mxGeometry x="-580" y="-20" width="666" height="300" as="geometry" />
        </mxCell>
        <mxCell id="qQvh8j2fQxOl9nIUwEqj-16" value="" style="shape=folder;fontStyle=1;spacingTop=10;tabWidth=40;tabHeight=14;tabPosition=left;html=1;whiteSpace=wrap;fillColor=#d5e8d4;strokeColor=#82b366;" parent="WIyWlLk6GJQsqaUBKTNV-1" vertex="1">
          <mxGeometry x="396" y="650" width="494" height="270" as="geometry" />
        </mxCell>
        <mxCell id="qQvh8j2fQxOl9nIUwEqj-15" value="" style="shape=folder;fontStyle=1;spacingTop=10;tabWidth=40;tabHeight=14;tabPosition=left;html=1;whiteSpace=wrap;fillColor=#e1d5e7;strokeColor=#9673a6;" parent="WIyWlLk6GJQsqaUBKTNV-1" vertex="1">
          <mxGeometry x="-580" y="290" width="960" height="630" as="geometry" />
        </mxCell>
        <mxCell id="FpsJmxUe_iai19lIrN9W-0" value="Person" style="swimlane;fontStyle=1;align=center;verticalAlign=top;childLayout=stackLayout;horizontal=1;startSize=26;horizontalStack=0;resizeParent=1;resizeParentMax=0;resizeLast=0;collapsible=1;marginBottom=0;whiteSpace=wrap;html=1;" parent="WIyWlLk6GJQsqaUBKTNV-1" vertex="1">
          <mxGeometry x="413" y="20" width="160" height="112" as="geometry" />
        </mxCell>
        <mxCell id="FpsJmxUe_iai19lIrN9W-1" value="+firstname : String" style="text;strokeColor=none;fillColor=none;align=left;verticalAlign=top;spacingLeft=4;spacingRight=4;overflow=hidden;rotatable=0;points=[[0,0.5],[1,0.5]];portConstraint=eastwest;whiteSpace=wrap;html=1;" parent="FpsJmxUe_iai19lIrN9W-0" vertex="1">
          <mxGeometry y="26" width="160" height="26" as="geometry" />
        </mxCell>
        <mxCell id="FpsJmxUe_iai19lIrN9W-4" value="+lastname : String" style="text;strokeColor=none;fillColor=none;align=left;verticalAlign=top;spacingLeft=4;spacingRight=4;overflow=hidden;rotatable=0;points=[[0,0.5],[1,0.5]];portConstraint=eastwest;whiteSpace=wrap;html=1;" parent="FpsJmxUe_iai19lIrN9W-0" vertex="1">
          <mxGeometry y="52" width="160" height="26" as="geometry" />
        </mxCell>
        <mxCell id="FpsJmxUe_iai19lIrN9W-5" value="+address : String" style="text;strokeColor=none;fillColor=none;align=left;verticalAlign=top;spacingLeft=4;spacingRight=4;overflow=hidden;rotatable=0;points=[[0,0.5],[1,0.5]];portConstraint=eastwest;whiteSpace=wrap;html=1;" parent="FpsJmxUe_iai19lIrN9W-0" vertex="1">
          <mxGeometry y="78" width="160" height="26" as="geometry" />
        </mxCell>
        <mxCell id="FpsJmxUe_iai19lIrN9W-2" value="" style="line;strokeWidth=1;fillColor=none;align=left;verticalAlign=middle;spacingTop=-1;spacingLeft=3;spacingRight=3;rotatable=0;labelPosition=right;points=[];portConstraint=eastwest;strokeColor=inherit;" parent="FpsJmxUe_iai19lIrN9W-0" vertex="1">
          <mxGeometry y="104" width="160" height="8" as="geometry" />
        </mxCell>
        <mxCell id="FpsJmxUe_iai19lIrN9W-6" value="Student" style="swimlane;fontStyle=1;align=center;verticalAlign=top;childLayout=stackLayout;horizontal=1;startSize=26;horizontalStack=0;resizeParent=1;resizeParentMax=0;resizeLast=0;collapsible=1;marginBottom=0;whiteSpace=wrap;html=1;" parent="WIyWlLk6GJQsqaUBKTNV-1" vertex="1">
          <mxGeometry x="580" y="320" width="160" height="60" as="geometry" />
        </mxCell>
        <mxCell id="FpsJmxUe_iai19lIrN9W-10" value="" style="line;strokeWidth=1;fillColor=none;align=left;verticalAlign=middle;spacingTop=-1;spacingLeft=3;spacingRight=3;rotatable=0;labelPosition=right;points=[];portConstraint=eastwest;strokeColor=inherit;" parent="FpsJmxUe_iai19lIrN9W-6" vertex="1">
          <mxGeometry y="26" width="160" height="8" as="geometry" />
        </mxCell>
        <mxCell id="FpsJmxUe_iai19lIrN9W-11" value="+calculateGPA() : double" style="text;strokeColor=none;fillColor=none;align=left;verticalAlign=top;spacingLeft=4;spacingRight=4;overflow=hidden;rotatable=0;points=[[0,0.5],[1,0.5]];portConstraint=eastwest;whiteSpace=wrap;html=1;" parent="FpsJmxUe_iai19lIrN9W-6" vertex="1">
          <mxGeometry y="34" width="160" height="26" as="geometry" />
        </mxCell>
        <mxCell id="FpsJmxUe_iai19lIrN9W-12" value="Class" style="swimlane;fontStyle=1;align=center;verticalAlign=top;childLayout=stackLayout;horizontal=1;startSize=26;horizontalStack=0;resizeParent=1;resizeParentMax=0;resizeLast=0;collapsible=1;marginBottom=0;whiteSpace=wrap;html=1;" parent="WIyWlLk6GJQsqaUBKTNV-1" vertex="1">
          <mxGeometry x="561" y="488" width="200" height="78" as="geometry" />
        </mxCell>
        <mxCell id="FpsJmxUe_iai19lIrN9W-13" value="+code: String" style="text;strokeColor=none;fillColor=none;align=left;verticalAlign=top;spacingLeft=4;spacingRight=4;overflow=hidden;rotatable=0;points=[[0,0.5],[1,0.5]];portConstraint=eastwest;whiteSpace=wrap;html=1;" parent="FpsJmxUe_iai19lIrN9W-12" vertex="1">
          <mxGeometry y="26" width="200" height="22" as="geometry" />
        </mxCell>
        <mxCell id="FpsJmxUe_iai19lIrN9W-16" value="" style="line;strokeWidth=1;fillColor=none;align=left;verticalAlign=middle;spacingTop=-1;spacingLeft=3;spacingRight=3;rotatable=0;labelPosition=right;points=[];portConstraint=eastwest;strokeColor=inherit;" parent="FpsJmxUe_iai19lIrN9W-12" vertex="1">
          <mxGeometry y="48" width="200" height="8" as="geometry" />
        </mxCell>
        <mxCell id="qQvh8j2fQxOl9nIUwEqj-30" value="+enrollStudent(Student) : void" style="text;strokeColor=none;fillColor=none;align=left;verticalAlign=top;spacingLeft=4;spacingRight=4;overflow=hidden;rotatable=0;points=[[0,0.5],[1,0.5]];portConstraint=eastwest;whiteSpace=wrap;html=1;" parent="FpsJmxUe_iai19lIrN9W-12" vertex="1">
          <mxGeometry y="56" width="200" height="22" as="geometry" />
        </mxCell>
        <mxCell id="FpsJmxUe_iai19lIrN9W-18" value="Course" style="swimlane;fontStyle=1;align=center;verticalAlign=top;childLayout=stackLayout;horizontal=1;startSize=26;horizontalStack=0;resizeParent=1;resizeParentMax=0;resizeLast=0;collapsible=1;marginBottom=0;whiteSpace=wrap;html=1;" parent="WIyWlLk6GJQsqaUBKTNV-1" vertex="1">
          <mxGeometry x="426" y="744" width="160" height="60" as="geometry" />
        </mxCell>
        <mxCell id="FpsJmxUe_iai19lIrN9W-19" value="+attribut: type" style="text;strokeColor=none;fillColor=none;align=left;verticalAlign=top;spacingLeft=4;spacingRight=4;overflow=hidden;rotatable=0;points=[[0,0.5],[1,0.5]];portConstraint=eastwest;whiteSpace=wrap;html=1;" parent="FpsJmxUe_iai19lIrN9W-18" vertex="1">
          <mxGeometry y="26" width="160" height="26" as="geometry" />
        </mxCell>
        <mxCell id="FpsJmxUe_iai19lIrN9W-20" value="" style="line;strokeWidth=1;fillColor=none;align=left;verticalAlign=middle;spacingTop=-1;spacingLeft=3;spacingRight=3;rotatable=0;labelPosition=right;points=[];portConstraint=eastwest;strokeColor=inherit;" parent="FpsJmxUe_iai19lIrN9W-18" vertex="1">
          <mxGeometry y="52" width="160" height="8" as="geometry" />
        </mxCell>
        <mxCell id="FpsJmxUe_iai19lIrN9W-28" value="&lt;i&gt;Employee&lt;/i&gt;" style="swimlane;fontStyle=1;align=center;verticalAlign=top;childLayout=stackLayout;horizontal=1;startSize=26;horizontalStack=0;resizeParent=1;resizeParentMax=0;resizeLast=0;collapsible=1;marginBottom=0;whiteSpace=wrap;html=1;" parent="WIyWlLk6GJQsqaUBKTNV-1" vertex="1">
          <mxGeometry x="-130" y="329" width="160" height="86" as="geometry" />
        </mxCell>
        <mxCell id="FpsJmxUe_iai19lIrN9W-30" value="" style="line;strokeWidth=1;fillColor=none;align=left;verticalAlign=middle;spacingTop=-1;spacingLeft=3;spacingRight=3;rotatable=0;labelPosition=right;points=[];portConstraint=eastwest;strokeColor=inherit;" parent="FpsJmxUe_iai19lIrN9W-28" vertex="1">
          <mxGeometry y="26" width="160" height="8" as="geometry" />
        </mxCell>
        <mxCell id="FpsJmxUe_iai19lIrN9W-31" value="+calculateSalary() : Float" style="text;strokeColor=none;fillColor=none;align=left;verticalAlign=top;spacingLeft=4;spacingRight=4;overflow=hidden;rotatable=0;points=[[0,0.5],[1,0.5]];portConstraint=eastwest;whiteSpace=wrap;html=1;" parent="FpsJmxUe_iai19lIrN9W-28" vertex="1">
          <mxGeometry y="34" width="160" height="26" as="geometry" />
        </mxCell>
        <mxCell id="FpsJmxUe_iai19lIrN9W-39" value="+getDegree() : Degree" style="text;strokeColor=none;fillColor=none;align=left;verticalAlign=top;spacingLeft=4;spacingRight=4;overflow=hidden;rotatable=0;points=[[0,0.5],[1,0.5]];portConstraint=eastwest;whiteSpace=wrap;html=1;" parent="FpsJmxUe_iai19lIrN9W-28" vertex="1">
          <mxGeometry y="60" width="160" height="26" as="geometry" />
        </mxCell>
        <mxCell id="FpsJmxUe_iai19lIrN9W-32" value="Departement" style="swimlane;fontStyle=1;align=center;verticalAlign=top;childLayout=stackLayout;horizontal=1;startSize=26;horizontalStack=0;resizeParent=1;resizeParentMax=0;resizeLast=0;collapsible=1;marginBottom=0;whiteSpace=wrap;html=1;" parent="WIyWlLk6GJQsqaUBKTNV-1" vertex="1">
          <mxGeometry x="210" y="192" width="160" height="60" as="geometry" />
        </mxCell>
        <mxCell id="FpsJmxUe_iai19lIrN9W-33" value="+name: String" style="text;strokeColor=none;fillColor=none;align=left;verticalAlign=top;spacingLeft=4;spacingRight=4;overflow=hidden;rotatable=0;points=[[0,0.5],[1,0.5]];portConstraint=eastwest;whiteSpace=wrap;html=1;" parent="FpsJmxUe_iai19lIrN9W-32" vertex="1">
          <mxGeometry y="26" width="160" height="26" as="geometry" />
        </mxCell>
        <mxCell id="FpsJmxUe_iai19lIrN9W-34" value="" style="line;strokeWidth=1;fillColor=none;align=left;verticalAlign=middle;spacingTop=-1;spacingLeft=3;spacingRight=3;rotatable=0;labelPosition=right;points=[];portConstraint=eastwest;strokeColor=inherit;" parent="FpsJmxUe_iai19lIrN9W-32" vertex="1">
          <mxGeometry y="52" width="160" height="8" as="geometry" />
        </mxCell>
        <mxCell id="FpsJmxUe_iai19lIrN9W-36" value="AdministrativeEmployee" style="swimlane;fontStyle=1;align=center;verticalAlign=top;childLayout=stackLayout;horizontal=1;startSize=26;horizontalStack=0;resizeParent=1;resizeParentMax=0;resizeLast=0;collapsible=1;marginBottom=0;whiteSpace=wrap;html=1;" parent="WIyWlLk6GJQsqaUBKTNV-1" vertex="1">
          <mxGeometry x="-40" y="499" width="160" height="60" as="geometry" />
        </mxCell>
        <mxCell id="FpsJmxUe_iai19lIrN9W-37" value="+attribut: type" style="text;strokeColor=none;fillColor=none;align=left;verticalAlign=top;spacingLeft=4;spacingRight=4;overflow=hidden;rotatable=0;points=[[0,0.5],[1,0.5]];portConstraint=eastwest;whiteSpace=wrap;html=1;" parent="FpsJmxUe_iai19lIrN9W-36" vertex="1">
          <mxGeometry y="26" width="160" height="26" as="geometry" />
        </mxCell>
        <mxCell id="FpsJmxUe_iai19lIrN9W-38" value="" style="line;strokeWidth=1;fillColor=none;align=left;verticalAlign=middle;spacingTop=-1;spacingLeft=3;spacingRight=3;rotatable=0;labelPosition=right;points=[];portConstraint=eastwest;strokeColor=inherit;" parent="FpsJmxUe_iai19lIrN9W-36" vertex="1">
          <mxGeometry y="52" width="160" height="8" as="geometry" />
        </mxCell>
        <mxCell id="FpsJmxUe_iai19lIrN9W-40" value="TeachingEmployee" style="swimlane;fontStyle=1;align=center;verticalAlign=top;childLayout=stackLayout;horizontal=1;startSize=26;horizontalStack=0;resizeParent=1;resizeParentMax=0;resizeLast=0;collapsible=1;marginBottom=0;whiteSpace=wrap;html=1;" parent="WIyWlLk6GJQsqaUBKTNV-1" vertex="1">
          <mxGeometry x="-253" y="499" width="200" height="86" as="geometry" />
        </mxCell>
        <mxCell id="FpsJmxUe_iai19lIrN9W-41" value="+experience: Interger" style="text;strokeColor=none;fillColor=none;align=left;verticalAlign=top;spacingLeft=4;spacingRight=4;overflow=hidden;rotatable=0;points=[[0,0.5],[1,0.5]];portConstraint=eastwest;whiteSpace=wrap;html=1;" parent="FpsJmxUe_iai19lIrN9W-40" vertex="1">
          <mxGeometry y="26" width="200" height="26" as="geometry" />
        </mxCell>
        <mxCell id="FpsJmxUe_iai19lIrN9W-42" value="" style="line;strokeWidth=1;fillColor=none;align=left;verticalAlign=middle;spacingTop=-1;spacingLeft=3;spacingRight=3;rotatable=0;labelPosition=right;points=[];portConstraint=eastwest;strokeColor=inherit;" parent="FpsJmxUe_iai19lIrN9W-40" vertex="1">
          <mxGeometry y="52" width="200" height="8" as="geometry" />
        </mxCell>
        <mxCell id="FpsJmxUe_iai19lIrN9W-43" value="+setExperience(Integer): void" style="text;strokeColor=none;fillColor=none;align=left;verticalAlign=top;spacingLeft=4;spacingRight=4;overflow=hidden;rotatable=0;points=[[0,0.5],[1,0.5]];portConstraint=eastwest;whiteSpace=wrap;html=1;" parent="FpsJmxUe_iai19lIrN9W-40" vertex="1">
          <mxGeometry y="60" width="200" height="26" as="geometry" />
        </mxCell>
        <mxCell id="FpsJmxUe_iai19lIrN9W-44" value="Office" style="swimlane;fontStyle=1;align=center;verticalAlign=top;childLayout=stackLayout;horizontal=1;startSize=26;horizontalStack=0;resizeParent=1;resizeParentMax=0;resizeLast=0;collapsible=1;marginBottom=0;whiteSpace=wrap;html=1;" parent="WIyWlLk6GJQsqaUBKTNV-1" vertex="1">
          <mxGeometry x="-130" y="76" width="160" height="86" as="geometry" />
        </mxCell>
        <mxCell id="FpsJmxUe_iai19lIrN9W-45" value="+floor : Integer" style="text;strokeColor=none;fillColor=none;align=left;verticalAlign=top;spacingLeft=4;spacingRight=4;overflow=hidden;rotatable=0;points=[[0,0.5],[1,0.5]];portConstraint=eastwest;whiteSpace=wrap;html=1;" parent="FpsJmxUe_iai19lIrN9W-44" vertex="1">
          <mxGeometry y="26" width="160" height="26" as="geometry" />
        </mxCell>
        <mxCell id="FpsJmxUe_iai19lIrN9W-54" value="+idNumber : Integer" style="text;strokeColor=none;fillColor=none;align=left;verticalAlign=top;spacingLeft=4;spacingRight=4;overflow=hidden;rotatable=0;points=[[0,0.5],[1,0.5]];portConstraint=eastwest;whiteSpace=wrap;html=1;" parent="FpsJmxUe_iai19lIrN9W-44" vertex="1">
          <mxGeometry y="52" width="160" height="26" as="geometry" />
        </mxCell>
        <mxCell id="FpsJmxUe_iai19lIrN9W-46" value="" style="line;strokeWidth=1;fillColor=none;align=left;verticalAlign=middle;spacingTop=-1;spacingLeft=3;spacingRight=3;rotatable=0;labelPosition=right;points=[];portConstraint=eastwest;strokeColor=inherit;" parent="FpsJmxUe_iai19lIrN9W-44" vertex="1">
          <mxGeometry y="78" width="160" height="8" as="geometry" />
        </mxCell>
        <mxCell id="FpsJmxUe_iai19lIrN9W-48" value="Building" style="swimlane;fontStyle=1;align=center;verticalAlign=top;childLayout=stackLayout;horizontal=1;startSize=26;horizontalStack=0;resizeParent=1;resizeParentMax=0;resizeLast=0;collapsible=1;marginBottom=0;whiteSpace=wrap;html=1;" parent="WIyWlLk6GJQsqaUBKTNV-1" vertex="1">
          <mxGeometry x="-510" y="65" width="160" height="108" as="geometry" />
        </mxCell>
        <mxCell id="FpsJmxUe_iai19lIrN9W-49" value="+name : String" style="text;strokeColor=none;fillColor=none;align=left;verticalAlign=top;spacingLeft=4;spacingRight=4;overflow=hidden;rotatable=0;points=[[0,0.5],[1,0.5]];portConstraint=eastwest;whiteSpace=wrap;html=1;" parent="FpsJmxUe_iai19lIrN9W-48" vertex="1">
          <mxGeometry y="26" width="160" height="22" as="geometry" />
        </mxCell>
        <mxCell id="FpsJmxUe_iai19lIrN9W-53" value="+gpsCoordinates : Stirng" style="text;strokeColor=none;fillColor=none;align=left;verticalAlign=top;spacingLeft=4;spacingRight=4;overflow=hidden;rotatable=0;points=[[0,0.5],[1,0.5]];portConstraint=eastwest;whiteSpace=wrap;html=1;" parent="FpsJmxUe_iai19lIrN9W-48" vertex="1">
          <mxGeometry y="48" width="160" height="26" as="geometry" />
        </mxCell>
        <mxCell id="FpsJmxUe_iai19lIrN9W-50" value="" style="line;strokeWidth=1;fillColor=none;align=left;verticalAlign=middle;spacingTop=-1;spacingLeft=3;spacingRight=3;rotatable=0;labelPosition=right;points=[];portConstraint=eastwest;strokeColor=inherit;" parent="FpsJmxUe_iai19lIrN9W-48" vertex="1">
          <mxGeometry y="74" width="160" height="8" as="geometry" />
        </mxCell>
        <mxCell id="FpsJmxUe_iai19lIrN9W-51" value="+ method(type): type" style="text;strokeColor=none;fillColor=none;align=left;verticalAlign=top;spacingLeft=4;spacingRight=4;overflow=hidden;rotatable=0;points=[[0,0.5],[1,0.5]];portConstraint=eastwest;whiteSpace=wrap;html=1;" parent="FpsJmxUe_iai19lIrN9W-48" vertex="1">
          <mxGeometry y="82" width="160" height="26" as="geometry" />
        </mxCell>
        <mxCell id="FpsJmxUe_iai19lIrN9W-60" value="" style="endArrow=block;endSize=10;endFill=0;shadow=0;strokeWidth=1;rounded=0;edgeStyle=elbowEdgeStyle;elbow=vertical;entryX=0.25;entryY=1;entryDx=0;entryDy=0;exitX=0.715;exitY=-0.004;exitDx=0;exitDy=0;exitPerimeter=0;" parent="WIyWlLk6GJQsqaUBKTNV-1" source="FpsJmxUe_iai19lIrN9W-28" target="FpsJmxUe_iai19lIrN9W-0" edge="1">
          <mxGeometry width="160" relative="1" as="geometry">
            <mxPoint x="200" y="360" as="sourcePoint" />
            <mxPoint x="307.28" y="152.99199999999996" as="targetPoint" />
            <Array as="points">
              <mxPoint x="230" y="180" />
            </Array>
          </mxGeometry>
        </mxCell>
        <mxCell id="FpsJmxUe_iai19lIrN9W-61" value="" style="endArrow=block;endSize=10;endFill=0;shadow=0;strokeWidth=1;rounded=0;edgeStyle=elbowEdgeStyle;elbow=vertical;entryX=0.75;entryY=1;entryDx=0;entryDy=0;exitX=0.432;exitY=-0.053;exitDx=0;exitDy=0;exitPerimeter=0;" parent="WIyWlLk6GJQsqaUBKTNV-1" source="FpsJmxUe_iai19lIrN9W-6" target="FpsJmxUe_iai19lIrN9W-0" edge="1">
          <mxGeometry width="160" relative="1" as="geometry">
            <mxPoint x="-50" y="300" as="sourcePoint" />
            <mxPoint x="359.27999999999975" y="151.66599999999994" as="targetPoint" />
            <Array as="points">
              <mxPoint x="580" y="180" />
            </Array>
          </mxGeometry>
        </mxCell>
        <mxCell id="FpsJmxUe_iai19lIrN9W-69" value="1...20" style="text;html=1;align=center;verticalAlign=middle;resizable=0;points=[];autosize=1;strokeColor=none;fillColor=none;" parent="WIyWlLk6GJQsqaUBKTNV-1" vertex="1">
          <mxGeometry x="660" y="380" width="50" height="30" as="geometry" />
        </mxCell>
        <mxCell id="FpsJmxUe_iai19lIrN9W-70" value="1" style="text;html=1;align=center;verticalAlign=middle;resizable=0;points=[];autosize=1;strokeColor=none;fillColor=none;" parent="WIyWlLk6GJQsqaUBKTNV-1" vertex="1">
          <mxGeometry x="670" y="456" width="30" height="30" as="geometry" />
        </mxCell>
        <mxCell id="FpsJmxUe_iai19lIrN9W-73" value="" style="endArrow=diamondThin;endFill=1;endSize=24;html=1;rounded=0;" parent="WIyWlLk6GJQsqaUBKTNV-1" source="FpsJmxUe_iai19lIrN9W-44" target="FpsJmxUe_iai19lIrN9W-48" edge="1">
          <mxGeometry width="160" relative="1" as="geometry">
            <mxPoint x="-247" y="3" as="sourcePoint" />
            <mxPoint x="-87" y="3" as="targetPoint" />
          </mxGeometry>
        </mxCell>
        <mxCell id="FpsJmxUe_iai19lIrN9W-74" value="1" style="text;html=1;align=center;verticalAlign=middle;resizable=0;points=[];autosize=1;strokeColor=none;fillColor=none;" parent="WIyWlLk6GJQsqaUBKTNV-1" vertex="1">
          <mxGeometry x="-340" y="76" width="30" height="30" as="geometry" />
        </mxCell>
        <mxCell id="FpsJmxUe_iai19lIrN9W-75" value="0..*" style="text;html=1;align=center;verticalAlign=middle;resizable=0;points=[];autosize=1;strokeColor=none;fillColor=none;" parent="WIyWlLk6GJQsqaUBKTNV-1" vertex="1">
          <mxGeometry x="-173" y="76" width="40" height="30" as="geometry" />
        </mxCell>
        <mxCell id="FpsJmxUe_iai19lIrN9W-78" value="" style="endArrow=block;endSize=10;endFill=0;shadow=0;strokeWidth=1;rounded=0;edgeStyle=elbowEdgeStyle;elbow=vertical;entryX=0.25;entryY=1;entryDx=0;entryDy=0;" parent="WIyWlLk6GJQsqaUBKTNV-1" source="FpsJmxUe_iai19lIrN9W-40" target="FpsJmxUe_iai19lIrN9W-28" edge="1">
          <mxGeometry width="160" relative="1" as="geometry">
            <mxPoint x="-50" y="313" as="sourcePoint" />
            <mxPoint x="-108" y="410" as="targetPoint" />
          </mxGeometry>
        </mxCell>
        <mxCell id="FpsJmxUe_iai19lIrN9W-79" value="" style="endArrow=block;endSize=10;endFill=0;shadow=0;strokeWidth=1;rounded=0;edgeStyle=elbowEdgeStyle;elbow=vertical;entryX=0.75;entryY=1;entryDx=0;entryDy=0;" parent="WIyWlLk6GJQsqaUBKTNV-1" source="FpsJmxUe_iai19lIrN9W-36" target="FpsJmxUe_iai19lIrN9W-28" edge="1">
          <mxGeometry width="160" relative="1" as="geometry">
            <mxPoint x="-280" y="530" as="sourcePoint" />
            <mxPoint x="-95" y="393" as="targetPoint" />
          </mxGeometry>
        </mxCell>
        <mxCell id="FpsJmxUe_iai19lIrN9W-81" value="" style="endArrow=none;html=1;edgeStyle=orthogonalEdgeStyle;rounded=0;entryX=0.5;entryY=0;entryDx=0;entryDy=0;exitX=0.5;exitY=1;exitDx=0;exitDy=0;" parent="WIyWlLk6GJQsqaUBKTNV-1" source="FpsJmxUe_iai19lIrN9W-44" target="FpsJmxUe_iai19lIrN9W-28" edge="1">
          <mxGeometry relative="1" as="geometry">
            <mxPoint x="-330" y="250" as="sourcePoint" />
            <mxPoint x="-50" y="400" as="targetPoint" />
          </mxGeometry>
        </mxCell>
        <mxCell id="FpsJmxUe_iai19lIrN9W-84" value="is assign to" style="edgeLabel;html=1;align=center;verticalAlign=middle;resizable=0;points=[];" parent="FpsJmxUe_iai19lIrN9W-81" vertex="1" connectable="0">
          <mxGeometry x="-0.0086" relative="1" as="geometry">
            <mxPoint as="offset" />
          </mxGeometry>
        </mxCell>
        <mxCell id="FpsJmxUe_iai19lIrN9W-86" value="" style="endArrow=diamondThin;endFill=0;endSize=24;html=1;rounded=0;exitX=0.955;exitY=-0.013;exitDx=0;exitDy=0;exitPerimeter=0;" parent="WIyWlLk6GJQsqaUBKTNV-1" source="FpsJmxUe_iai19lIrN9W-36" target="FpsJmxUe_iai19lIrN9W-32" edge="1">
          <mxGeometry width="160" relative="1" as="geometry">
            <mxPoint x="120" y="660" as="sourcePoint" />
            <mxPoint x="110" y="870" as="targetPoint" />
            <Array as="points">
              <mxPoint x="113" y="222" />
            </Array>
          </mxGeometry>
        </mxCell>
        <mxCell id="FpsJmxUe_iai19lIrN9W-87" value="Task" style="swimlane;fontStyle=1;align=center;verticalAlign=top;childLayout=stackLayout;horizontal=1;startSize=26;horizontalStack=0;resizeParent=1;resizeParentMax=0;resizeLast=0;collapsible=1;marginBottom=0;whiteSpace=wrap;html=1;" parent="WIyWlLk6GJQsqaUBKTNV-1" vertex="1">
          <mxGeometry x="210" y="500" width="160" height="60" as="geometry" />
        </mxCell>
        <mxCell id="FpsJmxUe_iai19lIrN9W-88" value="+name: String" style="text;strokeColor=none;fillColor=none;align=left;verticalAlign=top;spacingLeft=4;spacingRight=4;overflow=hidden;rotatable=0;points=[[0,0.5],[1,0.5]];portConstraint=eastwest;whiteSpace=wrap;html=1;" parent="FpsJmxUe_iai19lIrN9W-87" vertex="1">
          <mxGeometry y="26" width="160" height="26" as="geometry" />
        </mxCell>
        <mxCell id="FpsJmxUe_iai19lIrN9W-89" value="" style="line;strokeWidth=1;fillColor=none;align=left;verticalAlign=middle;spacingTop=-1;spacingLeft=3;spacingRight=3;rotatable=0;labelPosition=right;points=[];portConstraint=eastwest;strokeColor=inherit;" parent="FpsJmxUe_iai19lIrN9W-87" vertex="1">
          <mxGeometry y="52" width="160" height="8" as="geometry" />
        </mxCell>
        <mxCell id="FpsJmxUe_iai19lIrN9W-91" value="" style="endArrow=none;html=1;edgeStyle=orthogonalEdgeStyle;rounded=0;" parent="WIyWlLk6GJQsqaUBKTNV-1" source="FpsJmxUe_iai19lIrN9W-36" target="FpsJmxUe_iai19lIrN9W-87" edge="1">
          <mxGeometry relative="1" as="geometry">
            <mxPoint x="82" y="585" as="sourcePoint" />
            <mxPoint x="190" y="660" as="targetPoint" />
            <Array as="points">
              <mxPoint x="170" y="530" />
              <mxPoint x="170" y="530" />
            </Array>
          </mxGeometry>
        </mxCell>
        <mxCell id="FpsJmxUe_iai19lIrN9W-95" value="execute" style="edgeLabel;html=1;align=center;verticalAlign=middle;resizable=0;points=[];" parent="FpsJmxUe_iai19lIrN9W-91" vertex="1" connectable="0">
          <mxGeometry x="-0.5968" y="1" relative="1" as="geometry">
            <mxPoint x="22" y="1" as="offset" />
          </mxGeometry>
        </mxCell>
        <mxCell id="FpsJmxUe_iai19lIrN9W-96" value="1" style="text;html=1;align=center;verticalAlign=middle;resizable=0;points=[];autosize=1;strokeColor=none;fillColor=none;" parent="WIyWlLk6GJQsqaUBKTNV-1" vertex="1">
          <mxGeometry x="180" y="500" width="30" height="30" as="geometry" />
        </mxCell>
        <mxCell id="FpsJmxUe_iai19lIrN9W-99" value="0...*" style="text;html=1;align=center;verticalAlign=middle;resizable=0;points=[];autosize=1;strokeColor=none;fillColor=none;" parent="WIyWlLk6GJQsqaUBKTNV-1" vertex="1">
          <mxGeometry x="120" y="499" width="40" height="30" as="geometry" />
        </mxCell>
        <mxCell id="FpsJmxUe_iai19lIrN9W-100" value="" style="endArrow=diamondThin;endFill=1;endSize=24;html=1;rounded=0;" parent="WIyWlLk6GJQsqaUBKTNV-1" source="FpsJmxUe_iai19lIrN9W-87" target="FpsJmxUe_iai19lIrN9W-32" edge="1">
          <mxGeometry width="160" relative="1" as="geometry">
            <mxPoint x="-40" y="820" as="sourcePoint" />
            <mxPoint x="120" y="820" as="targetPoint" />
          </mxGeometry>
        </mxCell>
        <mxCell id="FpsJmxUe_iai19lIrN9W-101" value="Degree" style="swimlane;fontStyle=1;align=center;verticalAlign=top;childLayout=stackLayout;horizontal=1;startSize=26;horizontalStack=0;resizeParent=1;resizeParentMax=0;resizeLast=0;collapsible=1;marginBottom=0;whiteSpace=wrap;html=1;" parent="WIyWlLk6GJQsqaUBKTNV-1" vertex="1">
          <mxGeometry x="-510" y="342" width="160" height="60" as="geometry" />
        </mxCell>
        <mxCell id="FpsJmxUe_iai19lIrN9W-102" value="+name: String" style="text;strokeColor=none;fillColor=none;align=left;verticalAlign=top;spacingLeft=4;spacingRight=4;overflow=hidden;rotatable=0;points=[[0,0.5],[1,0.5]];portConstraint=eastwest;whiteSpace=wrap;html=1;" parent="FpsJmxUe_iai19lIrN9W-101" vertex="1">
          <mxGeometry y="26" width="160" height="26" as="geometry" />
        </mxCell>
        <mxCell id="FpsJmxUe_iai19lIrN9W-103" value="" style="line;strokeWidth=1;fillColor=none;align=left;verticalAlign=middle;spacingTop=-1;spacingLeft=3;spacingRight=3;rotatable=0;labelPosition=right;points=[];portConstraint=eastwest;strokeColor=inherit;" parent="FpsJmxUe_iai19lIrN9W-101" vertex="1">
          <mxGeometry y="52" width="160" height="8" as="geometry" />
        </mxCell>
        <mxCell id="FpsJmxUe_iai19lIrN9W-109" value="" style="endArrow=diamondThin;endFill=1;endSize=24;html=1;rounded=0;" parent="WIyWlLk6GJQsqaUBKTNV-1" source="FpsJmxUe_iai19lIrN9W-101" target="FpsJmxUe_iai19lIrN9W-28" edge="1">
          <mxGeometry width="160" relative="1" as="geometry">
            <mxPoint x="-140" y="660" as="sourcePoint" />
            <mxPoint x="20" y="660" as="targetPoint" />
          </mxGeometry>
        </mxCell>
        <mxCell id="FpsJmxUe_iai19lIrN9W-110" value="1" style="text;html=1;align=center;verticalAlign=middle;resizable=0;points=[];autosize=1;strokeColor=none;fillColor=none;" parent="WIyWlLk6GJQsqaUBKTNV-1" vertex="1">
          <mxGeometry x="-175" y="329" width="30" height="30" as="geometry" />
        </mxCell>
        <mxCell id="FpsJmxUe_iai19lIrN9W-111" value="1..*" style="text;html=1;align=center;verticalAlign=middle;resizable=0;points=[];autosize=1;strokeColor=none;fillColor=none;" parent="WIyWlLk6GJQsqaUBKTNV-1" vertex="1">
          <mxGeometry x="-350" y="329" width="40" height="30" as="geometry" />
        </mxCell>
        <mxCell id="FpsJmxUe_iai19lIrN9W-118" value="UniversityDeree" style="swimlane;fontStyle=1;align=center;verticalAlign=top;childLayout=stackLayout;horizontal=1;startSize=26;horizontalStack=0;resizeParent=1;resizeParentMax=0;resizeLast=0;collapsible=1;marginBottom=0;whiteSpace=wrap;html=1;" parent="WIyWlLk6GJQsqaUBKTNV-1" vertex="1">
          <mxGeometry x="-510" y="512" width="160" height="60" as="geometry" />
        </mxCell>
        <mxCell id="FpsJmxUe_iai19lIrN9W-127" value="+gradurationYear : Integer" style="text;strokeColor=none;fillColor=none;align=left;verticalAlign=top;spacingLeft=4;spacingRight=4;overflow=hidden;rotatable=0;points=[[0,0.5],[1,0.5]];portConstraint=eastwest;whiteSpace=wrap;html=1;" parent="FpsJmxUe_iai19lIrN9W-118" vertex="1">
          <mxGeometry y="26" width="160" height="26" as="geometry" />
        </mxCell>
        <mxCell id="FpsJmxUe_iai19lIrN9W-120" value="" style="line;strokeWidth=1;fillColor=none;align=left;verticalAlign=middle;spacingTop=-1;spacingLeft=3;spacingRight=3;rotatable=0;labelPosition=right;points=[];portConstraint=eastwest;strokeColor=inherit;" parent="FpsJmxUe_iai19lIrN9W-118" vertex="1">
          <mxGeometry y="52" width="160" height="8" as="geometry" />
        </mxCell>
        <mxCell id="FpsJmxUe_iai19lIrN9W-122" value="" style="endArrow=diamondThin;endFill=1;endSize=24;html=1;rounded=0;" parent="WIyWlLk6GJQsqaUBKTNV-1" source="FpsJmxUe_iai19lIrN9W-118" target="FpsJmxUe_iai19lIrN9W-40" edge="1">
          <mxGeometry width="160" relative="1" as="geometry">
            <mxPoint x="-277" y="369" as="sourcePoint" />
            <mxPoint x="-130" y="369" as="targetPoint" />
          </mxGeometry>
        </mxCell>
        <mxCell id="FpsJmxUe_iai19lIrN9W-124" value="" style="endArrow=block;endSize=10;endFill=0;shadow=0;strokeWidth=1;rounded=0;edgeStyle=elbowEdgeStyle;elbow=horizontal;" parent="WIyWlLk6GJQsqaUBKTNV-1" edge="1">
          <mxGeometry width="160" relative="1" as="geometry">
            <mxPoint x="-290" y="540" as="sourcePoint" />
            <mxPoint x="-290" y="380" as="targetPoint" />
            <Array as="points">
              <mxPoint x="-290" y="540" />
            </Array>
          </mxGeometry>
        </mxCell>
        <mxCell id="FpsJmxUe_iai19lIrN9W-125" value="1..*" style="text;html=1;align=center;verticalAlign=middle;resizable=0;points=[];autosize=1;strokeColor=none;fillColor=none;" parent="WIyWlLk6GJQsqaUBKTNV-1" vertex="1">
          <mxGeometry x="-350" y="499" width="40" height="30" as="geometry" />
        </mxCell>
        <mxCell id="FpsJmxUe_iai19lIrN9W-126" value="1" style="text;html=1;align=center;verticalAlign=middle;resizable=0;points=[];autosize=1;strokeColor=none;fillColor=none;" parent="WIyWlLk6GJQsqaUBKTNV-1" vertex="1">
          <mxGeometry x="-275" y="499" width="30" height="30" as="geometry" />
        </mxCell>
        <mxCell id="FpsJmxUe_iai19lIrN9W-128" value="Contractor" style="swimlane;fontStyle=1;align=center;verticalAlign=top;childLayout=stackLayout;horizontal=1;startSize=26;horizontalStack=0;resizeParent=1;resizeParentMax=0;resizeLast=0;collapsible=1;marginBottom=0;whiteSpace=wrap;html=1;" parent="WIyWlLk6GJQsqaUBKTNV-1" vertex="1">
          <mxGeometry x="-490" y="800" width="200" height="86" as="geometry" />
        </mxCell>
        <mxCell id="FpsJmxUe_iai19lIrN9W-129" value="+hoursTaught : Float" style="text;strokeColor=none;fillColor=none;align=left;verticalAlign=top;spacingLeft=4;spacingRight=4;overflow=hidden;rotatable=0;points=[[0,0.5],[1,0.5]];portConstraint=eastwest;whiteSpace=wrap;html=1;" parent="FpsJmxUe_iai19lIrN9W-128" vertex="1">
          <mxGeometry y="26" width="200" height="26" as="geometry" />
        </mxCell>
        <mxCell id="FpsJmxUe_iai19lIrN9W-132" value="+hourlyRate : Float" style="text;strokeColor=none;fillColor=none;align=left;verticalAlign=top;spacingLeft=4;spacingRight=4;overflow=hidden;rotatable=0;points=[[0,0.5],[1,0.5]];portConstraint=eastwest;whiteSpace=wrap;html=1;" parent="FpsJmxUe_iai19lIrN9W-128" vertex="1">
          <mxGeometry y="52" width="200" height="26" as="geometry" />
        </mxCell>
        <mxCell id="FpsJmxUe_iai19lIrN9W-130" value="" style="line;strokeWidth=1;fillColor=none;align=left;verticalAlign=middle;spacingTop=-1;spacingLeft=3;spacingRight=3;rotatable=0;labelPosition=right;points=[];portConstraint=eastwest;strokeColor=inherit;" parent="FpsJmxUe_iai19lIrN9W-128" vertex="1">
          <mxGeometry y="78" width="200" height="8" as="geometry" />
        </mxCell>
        <mxCell id="FpsJmxUe_iai19lIrN9W-133" value="" style="endArrow=block;endSize=10;endFill=0;shadow=0;strokeWidth=1;rounded=0;edgeStyle=elbowEdgeStyle;elbow=horizontal;exitX=0.5;exitY=0;exitDx=0;exitDy=0;entryX=0.5;entryY=1;entryDx=0;entryDy=0;" parent="WIyWlLk6GJQsqaUBKTNV-1" source="FpsJmxUe_iai19lIrN9W-118" target="FpsJmxUe_iai19lIrN9W-101" edge="1">
          <mxGeometry width="160" relative="1" as="geometry">
            <mxPoint x="-290" y="550" as="sourcePoint" />
            <mxPoint x="-430" y="410" as="targetPoint" />
          </mxGeometry>
        </mxCell>
        <mxCell id="FpsJmxUe_iai19lIrN9W-134" value="Permanent" style="swimlane;fontStyle=1;align=center;verticalAlign=top;childLayout=stackLayout;horizontal=1;startSize=26;horizontalStack=0;resizeParent=1;resizeParentMax=0;resizeLast=0;collapsible=1;marginBottom=0;whiteSpace=wrap;html=1;" parent="WIyWlLk6GJQsqaUBKTNV-1" vertex="1">
          <mxGeometry x="-255" y="800" width="200" height="86" as="geometry" />
        </mxCell>
        <mxCell id="FpsJmxUe_iai19lIrN9W-135" value="+monthlySalary : Float" style="text;strokeColor=none;fillColor=none;align=left;verticalAlign=top;spacingLeft=4;spacingRight=4;overflow=hidden;rotatable=0;points=[[0,0.5],[1,0.5]];portConstraint=eastwest;whiteSpace=wrap;html=1;" parent="FpsJmxUe_iai19lIrN9W-134" vertex="1">
          <mxGeometry y="26" width="200" height="26" as="geometry" />
        </mxCell>
        <mxCell id="FpsJmxUe_iai19lIrN9W-137" value="" style="line;strokeWidth=1;fillColor=none;align=left;verticalAlign=middle;spacingTop=-1;spacingLeft=3;spacingRight=3;rotatable=0;labelPosition=right;points=[];portConstraint=eastwest;strokeColor=inherit;" parent="FpsJmxUe_iai19lIrN9W-134" vertex="1">
          <mxGeometry y="52" width="200" height="8" as="geometry" />
        </mxCell>
        <mxCell id="FpsJmxUe_iai19lIrN9W-138" value="+method(type) : type" style="text;strokeColor=none;fillColor=none;align=left;verticalAlign=top;spacingLeft=4;spacingRight=4;overflow=hidden;rotatable=0;points=[[0,0.5],[1,0.5]];portConstraint=eastwest;whiteSpace=wrap;html=1;" parent="FpsJmxUe_iai19lIrN9W-134" vertex="1">
          <mxGeometry y="60" width="200" height="26" as="geometry" />
        </mxCell>
        <mxCell id="FpsJmxUe_iai19lIrN9W-143" value="" style="endArrow=block;endSize=10;endFill=0;shadow=0;strokeWidth=1;rounded=0;edgeStyle=elbowEdgeStyle;elbow=vertical;entryX=0.094;entryY=1.187;entryDx=0;entryDy=0;exitX=0.5;exitY=0;exitDx=0;exitDy=0;entryPerimeter=0;" parent="WIyWlLk6GJQsqaUBKTNV-1" source="FpsJmxUe_iai19lIrN9W-128" target="FpsJmxUe_iai19lIrN9W-43" edge="1">
          <mxGeometry width="160" relative="1" as="geometry">
            <mxPoint x="-143" y="509" as="sourcePoint" />
            <mxPoint x="-90" y="438" as="targetPoint" />
            <Array as="points">
              <mxPoint x="-330" y="660" />
            </Array>
          </mxGeometry>
        </mxCell>
        <mxCell id="FpsJmxUe_iai19lIrN9W-144" value="" style="endArrow=block;endSize=10;endFill=0;shadow=0;strokeWidth=1;rounded=0;edgeStyle=elbowEdgeStyle;elbow=vertical;" parent="WIyWlLk6GJQsqaUBKTNV-1" source="FpsJmxUe_iai19lIrN9W-134" target="FpsJmxUe_iai19lIrN9W-43" edge="1">
          <mxGeometry width="160" relative="1" as="geometry">
            <mxPoint x="-44" y="721" as="sourcePoint" />
            <mxPoint x="-91.79999999999995" y="584.9999999999995" as="targetPoint" />
            <Array as="points">
              <mxPoint x="-180" y="700" />
            </Array>
          </mxGeometry>
        </mxCell>
        <mxCell id="FpsJmxUe_iai19lIrN9W-146" value="" style="endArrow=diamondThin;endFill=0;endSize=24;html=1;rounded=0;" parent="WIyWlLk6GJQsqaUBKTNV-1" source="FpsJmxUe_iai19lIrN9W-134" target="FpsJmxUe_iai19lIrN9W-12" edge="1">
          <mxGeometry width="160" relative="1" as="geometry">
            <mxPoint x="440" y="402" as="sourcePoint" />
            <mxPoint x="410" y="931" as="targetPoint" />
            <Array as="points">
              <mxPoint x="660" y="843" />
            </Array>
          </mxGeometry>
        </mxCell>
        <mxCell id="FpsJmxUe_iai19lIrN9W-147" value="is responsible of" style="edgeLabel;html=1;align=center;verticalAlign=middle;resizable=0;points=[];" parent="FpsJmxUe_iai19lIrN9W-146" vertex="1" connectable="0">
          <mxGeometry x="0.4965" y="-2" relative="1" as="geometry">
            <mxPoint x="-507" y="-2" as="offset" />
          </mxGeometry>
        </mxCell>
        <mxCell id="FpsJmxUe_iai19lIrN9W-151" value="0..1" style="text;html=1;align=center;verticalAlign=middle;resizable=0;points=[];autosize=1;strokeColor=none;fillColor=none;" parent="WIyWlLk6GJQsqaUBKTNV-1" vertex="1">
          <mxGeometry x="-52" y="856" width="40" height="30" as="geometry" />
        </mxCell>
        <mxCell id="FpsJmxUe_iai19lIrN9W-152" value="1" style="text;html=1;align=center;verticalAlign=middle;resizable=0;points=[];autosize=1;strokeColor=none;fillColor=none;" parent="WIyWlLk6GJQsqaUBKTNV-1" vertex="1">
          <mxGeometry x="180" y="230" width="30" height="30" as="geometry" />
        </mxCell>
        <mxCell id="FpsJmxUe_iai19lIrN9W-153" value="1...*" style="text;html=1;align=center;verticalAlign=middle;resizable=0;points=[];autosize=1;strokeColor=none;fillColor=none;" parent="WIyWlLk6GJQsqaUBKTNV-1" vertex="1">
          <mxGeometry x="70" y="469" width="40" height="30" as="geometry" />
        </mxCell>
        <mxCell id="FpsJmxUe_iai19lIrN9W-155" value="1" style="text;html=1;align=center;verticalAlign=middle;resizable=0;points=[];autosize=1;strokeColor=none;fillColor=none;" parent="WIyWlLk6GJQsqaUBKTNV-1" vertex="1">
          <mxGeometry x="-83" y="162" width="30" height="30" as="geometry" />
        </mxCell>
        <mxCell id="FpsJmxUe_iai19lIrN9W-156" value="0...4" style="text;html=1;align=center;verticalAlign=middle;resizable=0;points=[];autosize=1;strokeColor=none;fillColor=none;" parent="WIyWlLk6GJQsqaUBKTNV-1" vertex="1">
          <mxGeometry x="-97" y="299" width="50" height="30" as="geometry" />
        </mxCell>
        <mxCell id="FpsJmxUe_iai19lIrN9W-157" value="1" style="text;html=1;align=center;verticalAlign=middle;resizable=0;points=[];autosize=1;strokeColor=none;fillColor=none;" parent="WIyWlLk6GJQsqaUBKTNV-1" vertex="1">
          <mxGeometry x="300" y="252" width="30" height="30" as="geometry" />
        </mxCell>
        <mxCell id="FpsJmxUe_iai19lIrN9W-158" value="1...*" style="text;html=1;align=center;verticalAlign=middle;resizable=0;points=[];autosize=1;strokeColor=none;fillColor=none;" parent="WIyWlLk6GJQsqaUBKTNV-1" vertex="1">
          <mxGeometry x="290" y="469" width="40" height="30" as="geometry" />
        </mxCell>
        <mxCell id="FpsJmxUe_iai19lIrN9W-161" value="" style="endArrow=diamondThin;endFill=0;endSize=24;html=1;rounded=0;entryX=0.5;entryY=0;entryDx=0;entryDy=0;exitX=0.511;exitY=0.895;exitDx=0;exitDy=0;exitPerimeter=0;" parent="WIyWlLk6GJQsqaUBKTNV-1" source="FpsJmxUe_iai19lIrN9W-11" target="FpsJmxUe_iai19lIrN9W-12" edge="1">
          <mxGeometry width="160" relative="1" as="geometry">
            <mxPoint x="560" y="550" as="sourcePoint" />
            <mxPoint x="720" y="550" as="targetPoint" />
          </mxGeometry>
        </mxCell>
        <mxCell id="qQvh8j2fQxOl9nIUwEqj-0" value="" style="endArrow=diamondThin;endFill=0;endSize=24;html=1;rounded=0;exitX=0.867;exitY=1.103;exitDx=0;exitDy=0;exitPerimeter=0;" parent="WIyWlLk6GJQsqaUBKTNV-1" source="FpsJmxUe_iai19lIrN9W-43" target="FpsJmxUe_iai19lIrN9W-18" edge="1">
          <mxGeometry width="160" relative="1" as="geometry">
            <mxPoint x="190" y="900" as="sourcePoint" />
            <mxPoint x="-30" y="690" as="targetPoint" />
            <Array as="points">
              <mxPoint x="-80" y="774" />
            </Array>
          </mxGeometry>
        </mxCell>
        <mxCell id="qQvh8j2fQxOl9nIUwEqj-7" value="is taught by" style="edgeLabel;html=1;align=center;verticalAlign=middle;resizable=0;points=[];" parent="qQvh8j2fQxOl9nIUwEqj-0" vertex="1" connectable="0">
          <mxGeometry x="-0.2013" y="-2" relative="1" as="geometry">
            <mxPoint x="134" y="-4" as="offset" />
          </mxGeometry>
        </mxCell>
        <mxCell id="qQvh8j2fQxOl9nIUwEqj-1" value="1" style="text;html=1;align=center;verticalAlign=middle;resizable=0;points=[];autosize=1;strokeColor=none;fillColor=none;" parent="WIyWlLk6GJQsqaUBKTNV-1" vertex="1">
          <mxGeometry x="680" y="600" width="30" height="30" as="geometry" />
        </mxCell>
        <mxCell id="qQvh8j2fQxOl9nIUwEqj-5" value="1" style="text;html=1;align=center;verticalAlign=middle;resizable=0;points=[];autosize=1;strokeColor=none;fillColor=none;" parent="WIyWlLk6GJQsqaUBKTNV-1" vertex="1">
          <mxGeometry x="396" y="790" width="30" height="30" as="geometry" />
        </mxCell>
        <mxCell id="qQvh8j2fQxOl9nIUwEqj-6" value="0...1" style="text;html=1;align=center;verticalAlign=middle;resizable=0;points=[];autosize=1;strokeColor=none;fillColor=none;" parent="WIyWlLk6GJQsqaUBKTNV-1" vertex="1">
          <mxGeometry x="-130" y="589" width="50" height="30" as="geometry" />
        </mxCell>
        <mxCell id="qQvh8j2fQxOl9nIUwEqj-8" value="0..*" style="text;html=1;align=center;verticalAlign=middle;resizable=0;points=[];autosize=1;strokeColor=none;fillColor=none;" parent="WIyWlLk6GJQsqaUBKTNV-1" vertex="1">
          <mxGeometry x="586" y="750" width="40" height="30" as="geometry" />
        </mxCell>
        <mxCell id="qQvh8j2fQxOl9nIUwEqj-11" value="" style="endArrow=none;html=1;edgeStyle=orthogonalEdgeStyle;rounded=0;entryX=0.25;entryY=1;entryDx=0;entryDy=0;" parent="WIyWlLk6GJQsqaUBKTNV-1" source="FpsJmxUe_iai19lIrN9W-18" target="FpsJmxUe_iai19lIrN9W-12" edge="1">
          <mxGeometry relative="1" as="geometry">
            <mxPoint x="596" y="884.82" as="sourcePoint" />
            <mxPoint x="756" y="884.82" as="targetPoint" />
            <Array as="points">
              <mxPoint x="620" y="780" />
            </Array>
          </mxGeometry>
        </mxCell>
        <mxCell id="qQvh8j2fQxOl9nIUwEqj-10" value="0..*" style="text;html=1;align=center;verticalAlign=middle;resizable=0;points=[];autosize=1;strokeColor=none;fillColor=none;" parent="WIyWlLk6GJQsqaUBKTNV-1" vertex="1">
          <mxGeometry x="586" y="566" width="40" height="30" as="geometry" />
        </mxCell>
        <mxCell id="qQvh8j2fQxOl9nIUwEqj-20" value="Infrastructure" style="text;html=1;strokeColor=none;fillColor=none;align=left;verticalAlign=middle;whiteSpace=wrap;rounded=0;fontStyle=1;fontSize=14;" parent="WIyWlLk6GJQsqaUBKTNV-1" vertex="1">
          <mxGeometry x="-580" width="60" height="30" as="geometry" />
        </mxCell>
        <mxCell id="qQvh8j2fQxOl9nIUwEqj-21" value="Employee" style="text;html=1;strokeColor=none;fillColor=none;align=left;verticalAlign=middle;whiteSpace=wrap;rounded=0;fontStyle=1;fontSize=14;" parent="WIyWlLk6GJQsqaUBKTNV-1" vertex="1">
          <mxGeometry x="-580" y="299" width="60" height="30" as="geometry" />
        </mxCell>
        <mxCell id="qQvh8j2fQxOl9nIUwEqj-24" value="Students" style="text;html=1;strokeColor=none;fillColor=none;align=left;verticalAlign=middle;whiteSpace=wrap;rounded=0;fontStyle=1;fontSize=14;" parent="WIyWlLk6GJQsqaUBKTNV-1" vertex="1">
          <mxGeometry x="400" y="312" width="60" height="30" as="geometry" />
        </mxCell>
        <mxCell id="qQvh8j2fQxOl9nIUwEqj-26" value="Program" style="text;html=1;strokeColor=none;fillColor=none;align=left;verticalAlign=middle;whiteSpace=wrap;rounded=0;fontStyle=1;fontSize=14;" parent="WIyWlLk6GJQsqaUBKTNV-1" vertex="1">
          <mxGeometry x="396" y="665" width="60" height="30" as="geometry" />
        </mxCell>
        <mxCell id="qQvh8j2fQxOl9nIUwEqj-28" value="General" style="text;html=1;strokeColor=none;fillColor=none;align=left;verticalAlign=middle;whiteSpace=wrap;rounded=0;fontStyle=1;fontSize=14;" parent="WIyWlLk6GJQsqaUBKTNV-1" vertex="1">
          <mxGeometry x="110" width="60" height="30" as="geometry" />
        </mxCell>
      </root>
    </mxGraphModel>
  </diagram>
</mxfile>
